<?xml version="1.0" encoding="utf-8"?>
<!-- Generator: Adobe Illustrator 16.0.2, SVG Export Plug-In . SVG Version: 6.00 Build 0)  -->
<!DOCTYPE svg PUBLIC "-//W3C//DTD SVG 1.1//EN" "http://www.w3.org/Graphics/SVG/1.1/DTD/svg11.dtd">
<svg version="1.1" id="Слой_1" xmlns="http://www.w3.org/2000/svg" xmlns:xlink="http://www.w3.org/1999/xlink" x="0px" y="0px"
	 width="59.563px" height="13px" viewBox="0 0 59.563 13" enable-background="new 0 0 59.563 13" xml:space="preserve">
<g>
	<g id="XMLID_3_">
		<g>
			<path fill="#FFFFFF" d="M9.52,1.683l-1.26,9.49H4.52l-1.43-9.49h2.6c0.31,2.62,0.52,4.83,0.65,6.63
				c0.13-1.82,0.26-3.45,0.41-4.86l0.17-1.77H9.52z"/>
		</g>
		<g>
		</g>
	</g>
	<g id="XMLID_4_">
		<g>
			<path fill="#FFFFFF" d="M17.1,7.273v3.9h-2.31v-0.69c-0.14,0.27-0.33,0.48-0.56,0.62c-0.22,0.14-0.5,0.21-0.81,0.21
				c-0.42,0-0.8-0.12-1.14-0.35c-0.35-0.23-0.52-0.74-0.52-1.53v-0.63c0-0.59,0.09-0.98,0.27-1.19c0.19-0.22,0.64-0.46,1.37-0.74
				c0.78-0.31,1.19-0.51,1.25-0.62c0.05-0.1,0.08-0.32,0.08-0.64c0-0.41-0.03-0.67-0.09-0.8c-0.06-0.12-0.16-0.18-0.3-0.18
				c-0.16,0-0.26,0.05-0.3,0.15c-0.04,0.11-0.06,0.38-0.06,0.81v0.81h-2.22v-0.52c0-0.6,0.07-1.06,0.21-1.39
				c0.14-0.32,0.41-0.61,0.83-0.86c0.42-0.25,0.96-0.38,1.63-0.38c0.8,0,1.41,0.14,1.81,0.43c0.41,0.28,0.65,0.63,0.73,1.04
				C17.06,5.133,17.1,5.983,17.1,7.273z M14.73,9.073v-1.6c-0.38,0.28-0.6,0.51-0.66,0.7s-0.09,0.46-0.09,0.81
				c0,0.4,0.03,0.66,0.08,0.78c0.05,0.11,0.16,0.17,0.31,0.17s0.25-0.04,0.29-0.14C14.71,9.703,14.73,9.463,14.73,9.073z"/>
		</g>
		<g>
		</g>
	</g>
	<g id="XMLID_5_">
		<g>
			<path fill="#FFFFFF" d="M24.93,8.873c0,0.63-0.08,1.11-0.25,1.43c-0.16,0.33-0.44,0.57-0.82,0.75c-0.39,0.17-0.85,0.26-1.39,0.26
				c-0.61,0-1.12-0.09-1.55-0.28c-0.43-0.19-0.72-0.44-0.88-0.76s-0.24-0.81-0.24-1.46v-0.37h2.1v0.49c0,0.42,0.02,0.69,0.08,0.81
				c0.05,0.13,0.15,0.19,0.31,0.19c0.17,0,0.29-0.04,0.35-0.12c0.07-0.09,0.1-0.26,0.1-0.53c0-0.38-0.04-0.61-0.13-0.7
				c-0.09-0.1-0.55-0.37-1.37-0.83c-0.7-0.39-1.12-0.75-1.28-1.07c-0.15-0.32-0.22-0.69-0.22-1.13c0-0.62,0.08-1.08,0.24-1.37
				c0.17-0.3,0.44-0.53,0.84-0.69c0.39-0.16,0.85-0.24,1.37-0.24c0.51,0,0.95,0.07,1.31,0.2s0.64,0.3,0.83,0.52
				c0.2,0.21,0.31,0.41,0.35,0.59c0.05,0.19,0.07,0.48,0.07,0.87v0.45h-2.1v-0.42c0-0.36-0.02-0.59-0.06-0.69
				c-0.04-0.09-0.15-0.14-0.31-0.14c-0.13,0-0.23,0.04-0.3,0.13c-0.07,0.09-0.1,0.22-0.1,0.4c0,0.23,0.02,0.41,0.05,0.52
				c0.03,0.11,0.13,0.23,0.3,0.37c0.17,0.13,0.51,0.32,1.02,0.58c0.69,0.33,1.14,0.65,1.35,0.95
				C24.82,7.873,24.93,8.313,24.93,8.873z"/>
		</g>
		<g>
		</g>
	</g>
	<g id="XMLID_6_">
		<g>
			<path fill="#FFFFFF" d="M32.52,3.393l-0.68,5.63c-0.11,0.89-0.2,1.5-0.27,1.82c-0.07,0.32-0.19,0.59-0.36,0.8s-0.4,0.37-0.7,0.47
				c-0.3,0.1-0.78,0.15-1.43,0.15h-1.44v-1.24c0.37,0,0.61-0.02,0.71-0.06c0.11-0.04,0.16-0.12,0.16-0.25
				c0-0.06-0.05-0.33-0.15-0.81l-1.29-6.51h2.15l0.77,5.25l0.38-5.25H32.52z"/>
		</g>
		<g>
		</g>
	</g>
	<g id="XMLID_7_">
		<g>
			<rect x="34.94" y="1.683" fill="#FFFFFF" width="2.44" height="9.49"/>
		</g>
		<g>
		</g>
	</g>
	<g id="XMLID_8_">
		<g>
			<rect x="40.23" y="3.393" fill="#FFFFFF" width="2.43" height="7.78"/>
		</g>
		<g>
		</g>
	</g>
	<g id="XMLID_1_">
		<g>
			<polygon fill="#00A0C6" points="48.05,5.383 49.59,5.383 49.59,7.183 48.05,7.183 48.05,9.273 49.86,9.273 49.86,11.173 
				45.58,11.173 45.58,1.683 49.7,1.683 49.7,3.583 48.05,3.583 			"/>
		</g>
		<g>
		</g>
	</g>
	<g id="XMLID_2_">
		<g>
			<path fill="#00A0C6" d="M54.79,9.073c0.05-0.42,0.14-1.43,0.26-3.05c0.07-0.9,0.15-1.78,0.23-2.63h2.12l-1.11,7.78H53.2
				l-1.19-7.78h2.11L54.79,9.073z"/>
		</g>
		<g>
		</g>
	</g>
</g>
</svg>
